# xmcd
#
# Track frame offsets: 
#        150
#        19127
#        36835
#        53070
#        70752
#        87982
#        103957
#        125250
#        150000
#
# Disc length: 2278 seconds
#
# Revision: 2
# Processed by: cddbd v1.5.2PL0 Copyright (c) Steve Scherf et al.
# Submitted via: ExactAudioCopy v0.99pb5
#
DISCID=6808e409
DTITLE=Fred Mcdowell - Long Way From Home
DYEAR=1966
DGENRE=Blues
TTITLE0=The Train I Ride
TTITLE1=Poor Boy, Long Way From Home
TTITLE2=Milk Cow Blues
TTITLE3=John Henry
TTITLE4=Gravel Road Blues
TTITLE5=Millionaire's Daughter Blues
TTITLE6=Big Fat Mama
TTITLE7=You Drove Me From Your Door
TTITLE8=Sail On, Little Girl
EXTD=
EXTT0=
EXTT1=
EXTT2=
EXTT3=
EXTT4=
EXTT5=
EXTT6=
EXTT7=
EXTT8=
PLAYORDER=
